# xmcd
#
# Track frame offsets: 
#        150
#        17206
#        29333
#        46345
#        60122
#        76398
#        94134
#        110220
#        124242
#        139807
#        154856
#        169798
#        182650
#        199094
#
# Disc length: 2854 seconds
#
# Revision: 0
# Processed by: cddbd v1.5.2PL0 Copyright (c) Steve Scherf et al.
# Submitted via: ExactAudioCopy v0.99pb4
#
DISCID=bb0b240e
DTITLE=Christoff - Hou Me Vast
DYEAR=2016
DGENRE=Chanson
TTITLE0=Jij Bent Mijn Hartslag
TTITLE1=Het Beste Wat Mij Ooit Is Overkomen
TTITLE2=Een Dag Vol Liefde
TTITLE3=Ogen Weer Geopend
TTITLE4=Ik Hou Nog Aan Je Vast
TTITLE5=Ik Ben Geboren Om Van Jou Te Houden
TTITLE6=Zij Wacht Op Haar Prins
TTITLE7=Vanavond Gaat Het Gebeuren (Met Gerard Joling)
TTITLE8=Vergeven Kan, Vergeten Niet
TTITLE9=Speel Niet Met Geluk
TTITLE10=Liefde Is...
TTITLE11=Heel Graag Zien (Met Lindsay)
TTITLE12=Ga Met Me Mee
TTITLE13=Lasst Uns Freunde Bleiben, Bis Wir 100 Sind (KLUBBB3)
EXTD=
EXTT0=
EXTT1=
EXTT2=
EXTT3=
EXTT4=
EXTT5=
EXTT6=
EXTT7=
EXTT8=
EXTT9=
EXTT10=
EXTT11=
EXTT12=
EXTT13=
PLAYORDER=
